<?xml version="1.0" encoding="UTF-8" standalone="no"?>
<!-- Created with Inkscape (http://www.inkscape.org/) -->

<svg
   width="50mm"
   height="50mm"
   viewBox="0 0 50 50"
   version="1.1"
   id="svg5"
   inkscape:version="1.2 (dc2aedaf03, 2022-05-15)"
   sodipodi:docname="desenho-2.svg"
   xmlns:inkscape="http://www.inkscape.org/namespaces/inkscape"
   xmlns:sodipodi="http://sodipodi.sourceforge.net/DTD/sodipodi-0.dtd"
   xmlns="http://www.w3.org/2000/svg"
   xmlns:svg="http://www.w3.org/2000/svg">
  <sodipodi:namedview
     id="namedview7"
     pagecolor="#ffffff"
     bordercolor="#666666"
     borderopacity="1.0"
     inkscape:showpageshadow="2"
     inkscape:pageopacity="0.0"
     inkscape:pagecheckerboard="0"
     inkscape:deskcolor="#d1d1d1"
     inkscape:document-units="mm"
     showgrid="false"
     inkscape:zoom="1.4639639"
     inkscape:cx="86.750775"
     inkscape:cy="94.947698"
     inkscape:window-width="1280"
     inkscape:window-height="953"
     inkscape:window-x="-8"
     inkscape:window-y="-8"
     inkscape:window-maximized="1"
     inkscape:current-layer="layer1" />
  <defs
     id="defs2">
    <pattern
       id="EMFhbasepattern"
       patternUnits="userSpaceOnUse"
       width="6"
       height="6"
       x="0"
       y="0" />
  </defs>
  <g
     inkscape:label="Camada 1"
     inkscape:groupmode="layer"
     id="layer1">
    <path
       style="fill:#221f20;fill-opacity:1;fill-rule:nonzero;stroke:none;stroke-width:0.264583"
       d="m 2.82272,21.03876 h 44.35457 c 0.61798,0 1.17614,0.25103 1.58481,0.66272 0.40866,0.41169 0.65784,0.97399 0.65784,1.59654 v 3.40396 c 0,0.62254 -0.24918,1.18485 -0.65784,1.59655 -0.40867,0.41168 -0.96683,0.66271 -1.58481,0.66271 H 2.82272 c -0.61798,0 -1.17615,-0.25103 -1.58481,-0.66271 -0.40866,-0.41169 -0.65785,-0.974 -0.65785,-1.59655 v -3.40396 c 0,-0.62254 0.24919,-1.18485 0.65785,-1.59654 0.40866,-0.41169 0.96683,-0.66272 1.58481,-0.66272 z m 44.35457,0.20083 H 2.82272 c -0.55817,0 -1.07647,0.23094 -1.44527,0.60247 -0.36879,0.37152 -0.59804,0.89367 -0.59804,1.45596 v 3.40396 c 0,0.56231 0.22925,1.08445 0.59804,1.45597 0.3688,0.37152 0.8871,0.60247 1.44527,0.60247 h 44.35457 c 0.55817,0 1.07647,-0.23095 1.44526,-0.60247 0.36879,-0.37152 0.59804,-0.89366 0.59804,-1.45597 v -3.40396 c 0,-0.56229 -0.22925,-1.08444 -0.59804,-1.45596 -0.36879,-0.37153 -0.88709,-0.60247 -1.44526,-0.60247 z"
       id="path185" />
    <path
       style="fill:#221f20;fill-opacity:1;fill-rule:nonzero;stroke:none;stroke-width:0.264583"
       d="m 5.2049,21.03876 h 39.59019 c 0.61798,0 1.17614,0.25103 1.58481,0.66272 0.40866,0.41169 0.65784,0.97399 0.65784,1.59654 v 3.40396 c 0,0.62254 -0.24918,1.18485 -0.65784,1.59655 -0.40867,0.41168 -0.96683,0.66271 -1.58481,0.66271 H 5.2049 c -0.61798,0 -1.17615,-0.25103 -1.58481,-0.66271 -0.40866,-0.41169 -0.65783,-0.974 -0.65783,-1.59655 v -3.40396 c 0,-0.62254 0.24917,-1.18485 0.65783,-1.59654 0.40866,-0.41169 0.96683,-0.66272 1.58481,-0.66272 z m 39.59019,0.20083 H 5.2049 c -0.55817,0 -1.07647,0.23094 -1.44526,0.60247 -0.36879,0.37152 -0.59804,0.89367 -0.59804,1.45596 v 3.40396 c 0,0.56231 0.22925,1.08445 0.59804,1.45597 0.36879,0.37152 0.88709,0.60247 1.44526,0.60247 h 39.59019 c 0.56814,0 1.07647,-0.23095 1.44526,-0.60247 0.36879,-0.37152 0.59804,-0.89366 0.59804,-1.45597 v -3.40396 c 0,-0.56229 -0.22925,-1.08444 -0.59804,-1.45596 -0.36879,-0.37153 -0.87712,-0.60247 -1.44526,-0.60247 z"
       id="path187" />
    <path
       style="fill:#221f20;fill-opacity:1;fill-rule:nonzero;stroke:none;stroke-width:0.264583"
       d="m 7.577125,21.03876 h 34.84575 c 0.61797,0 1.17614,0.25103 1.5848,0.66272 0.40866,0.41169 0.65785,0.97399 0.65785,1.59654 v 3.40396 c 0,0.62254 -0.24919,1.18485 -0.65785,1.59655 -0.40866,0.41168 -0.96683,0.66271 -1.5848,0.66271 H 7.577125 c -0.61799,0 -1.17615,-0.25103 -1.58481,-0.66271 -0.40866,-0.41169 -0.65784,-0.974 -0.65784,-1.59655 v -3.40396 c 0,-0.62254 0.24918,-1.18485 0.65784,-1.59654 0.40866,-0.41169 0.96682,-0.66272 1.58481,-0.66272 z m 34.84575,0.20083 H 7.577125 c -0.56814,0 -1.07647,0.23094 -1.44527,0.60247 -0.36878,0.37152 -0.59804,0.89367 -0.59804,1.45596 v 3.40396 c 0,0.56231 0.22926,1.08445 0.59804,1.45597 0.3688,0.37152 0.87713,0.60247 1.44527,0.60247 h 34.84575 c 0.56814,0 1.07647,-0.23095 1.44526,-0.60247 0.36879,-0.37152 0.59804,-0.89366 0.59804,-1.45597 v -3.40396 c 0,-0.56229 -0.22925,-1.08444 -0.59804,-1.45596 -0.36879,-0.37153 -0.87712,-0.60247 -1.44526,-0.60247 z"
       id="path189" />
  </g>
</svg>
